HIERARCHY
ROOT Hips
{
  OFFSET 51.7686 84.733 37.6087
  CHANNELS 6 Xposition Yposition Zposition Zrotation Xrotation Yrotation
  JOINT spine
  {
    OFFSET 0 5.95438 0.342407
    CHANNELS 3 Zrotation Xrotation Yrotation
    JOINT spine1
    {
      OFFSET 0 8.85602 0
      CHANNELS 3 Zrotation Xrotation Yrotation
      JOINT spine2
      {
        OFFSET 0 8.48567 0
        CHANNELS 3 Zrotation Xrotation Yrotation
        JOINT Neck
        {
          OFFSET 0 21.7863 1.0387
          CHANNELS 3 Zrotation Xrotation Yrotation
          JOINT Head
          {
            OFFSET 0 6.5822 0
            CHANNELS 3 Zrotation Xrotation Yrotation
            End Site
            {
              OFFSET 0 15.9326 -5.25436
            }
          }
        }
        JOINT RightShoulder
        {
          OFFSET -3.57307 9.16386 -0.497525
          CHANNELS 3 Zrotation Xrotation Yrotation
          JOINT RightArm
          {
            OFFSET 0 12.0192 0
            CHANNELS 3 Zrotation Xrotation Yrotation
            JOINT RightArmRoll
            {
              OFFSET 0 6.06755 0
              CHANNELS 3 Zrotation Xrotation Yrotation
              JOINT RightForeArm
              {
                OFFSET 0 17.6726 0
                CHANNELS 3 Zrotation Xrotation Yrotation
                JOINT RightForeArmRoll
                {
                  OFFSET 0 6.80872 0
                  CHANNELS 3 Zrotation Xrotation Yrotation
                  JOINT RightHand
                  {
                    OFFSET 0 13.6636 0
                    CHANNELS 3 Zrotation Xrotation Yrotation
                    End Site
                    {
                      OFFSET 0 0 0
                    }
                  }
                }
              }
            }
          }
        }
        JOINT LeftShoulder
        {
          OFFSET 3.57307 9.16386 -0.497525
          CHANNELS 3 Zrotation Xrotation Yrotation
          JOINT LeftArm
          {
            OFFSET 0 12.0192 0
            CHANNELS 3 Zrotation Xrotation Yrotation
            JOINT LeftArmRoll
            {
              OFFSET 0 6.06755 0
              CHANNELS 3 Zrotation Xrotation Yrotation
              JOINT LeftForeArm
              {
                OFFSET 0 17.6726 0
                CHANNELS 3 Zrotation Xrotation Yrotation
                JOINT LeftForeArmRoll
                {
                  OFFSET 0 6.80872 0
                  CHANNELS 3 Zrotation Xrotation Yrotation
                  JOINT LeftHand
                  {
                    OFFSET 0 13.6636 0
                    CHANNELS 3 Zrotation Xrotation Yrotation
                    End Site
                    {
                      OFFSET 0 0 0
                    }
                  }
                }
              }
            }
          }
        }
      }
    }
  }
  JOINT RightUpLeg
  {
    OFFSET -5.27774 -0.967797 -0.811858
    CHANNELS 3 Zrotation Xrotation Yrotation
    JOINT RightUpLegRoll
    {
      OFFSET 0 16.0214 0
      CHANNELS 3 Zrotation Xrotation Yrotation
      JOINT RightLeg
      {
        OFFSET 0 -19.8401 0
        CHANNELS 3 Zrotation Xrotation Yrotation
        JOINT RightLegRoll
        {
          OFFSET 0 19.905 0
          CHANNELS 3 Zrotation Xrotation Yrotation
          JOINT RightFoot
          {
            OFFSET 0 16.5675 0
            CHANNELS 3 Zrotation Xrotation Yrotation
            JOINT RightToeBase
            {
              OFFSET 0 13.8496 0
              CHANNELS 3 Zrotation Xrotation Yrotation
              End Site
              {
                OFFSET 0.00587034 6.70727 -0.773117
              }
            }
          }
        }
      }
    }
  }
  JOINT LeftUpLeg
  {
    OFFSET 5.27774 -0.967797 -0.811858
    CHANNELS 3 Zrotation Xrotation Yrotation
    JOINT LeftUpLegRoll
    {
      OFFSET 0 16.0215 0
      CHANNELS 3 Zrotation Xrotation Yrotation
      JOINT LeftLeg
      {
        OFFSET 0 19.84 0
        CHANNELS 3 Zrotation Xrotation Yrotation
        JOINT LeftLegRoll
        {
          OFFSET 0 20.089 0
          CHANNELS 3 Zrotation Xrotation Yrotation
          JOINT LeftFoot
          {
            OFFSET 0 16.3835 0
            CHANNELS 3 Zrotation Xrotation Yrotation
            JOINT LeftToeBase
            {
              OFFSET 0 13.8496 0
              CHANNELS 3 Zrotation Xrotation Yrotation
              End Site
              {
                OFFSET -0.0263083 6.70727 -0.773117
              }
            }
          }
        }
      }
    }
  }
}
MOTION
Frames: 13
Frame Time: 0.00208333
49.3524 53.7996 -5.99148 -1.61303 -21.2579 4.20526 -0.308755 -0.290236 -0.491018 -0.630006 3.42494 -0.951475 -0.619411 5.06987 -0.941904 4.07587 29.2778 -1.85178 2.17755 6.78902 0.120162 92.7793 -0.181097 -3.65038 85.5597 28.5202 8.20969 -3.70031e-006 -7.87616e-006 -9.65574e-007 -3.643 -0.0305542 -1.99272 -2.16825e-005 4.26875e-006 -3.01161 8.03009 -4.95138 0.697598 -72.8174 -8.92418 5.75136 -102.565 31.6765 7.21414 7.95139e-015 2.22639e-014 7.95139e-015 3.63702 -0.0275356 1.99255 6.49439e-006 -1.92355e-006 3.0116 -8.03009 -4.95139 -0.697618 178.852 59.7108 -1.53925 180 7.01546e-015 178.92 -173.861 61.0539 173.465 -4.82919e-006 -3.06388e-006 1.14182 -18.992 68.1747 19.6866 8.13649 25.2327 -3.48773 -175.475 60.7942 0.464343 4.47153e-006 -3.51245e-005 -1.14273 6.91772 -59.6859 6.14018 2.92717e-006 -1.15251e-006 -1.03592 17.4127 65.3228 -17.5275 -8.13649 25.2327 3.48773 
49.3559 53.8056 -6.00332 -1.60688 -21.255 4.21633 -0.30797 -0.281979 -0.490418 -0.627375 3.44144 -0.949511 -0.616802 5.08637 -0.940059 4.09924 29.3017 -1.87669 2.13884 6.88487 0.104574 92.7248 -0.186586 -3.64672 85.6405 28.5723 8.1267 -3.70031e-006 -7.87616e-006 -9.65574e-007 -3.643 -0.0305542 -1.99272 -2.16825e-005 4.26875e-006 -3.01161 8.03009 -4.95138 0.697598 -72.8121 -8.93212 5.75508 -102.585 31.732 7.24927 -7.15625e-015 0 -5.56597e-015 3.63736 -0.0275355 1.99255 6.49439e-006 -1.92355e-006 3.0116 -8.03009 -4.95139 -0.697618 178.872 59.7508 -1.55317 180 7.01546e-015 178.919 -173.843 61.1035 173.447 -4.82919e-006 -3.06388e-006 1.14311 -18.9925 68.1753 19.6865 8.13649 25.2327 -3.48773 -175.559 60.8118 0.547045 4.47153e-006 -3.51245e-005 -1.14273 6.94472 -59.7013 6.15949 2.92717e-006 -1.15251e-006 -1.03599 17.4121 65.322 -17.5259 -8.13649 25.2327 3.48773 
49.3563 53.8068 -6.00306 -1.60076 -21.2526 4.22729 -0.307232 -0.273665 -0.489876 -0.624805 3.45805 -0.947619 -0.614252 5.10298 -0.938291 4.12396 29.3215 -1.90215 2.09844 6.98421 0.0888652 92.67 -0.192029 -3.643 85.7228 28.6243 8.04258 -3.70031e-006 -7.87616e-006 -9.65574e-007 -3.643 -0.0305542 -1.99272 -2.16825e-005 4.26875e-006 -3.01161 8.03009 -4.95138 0.697598 -72.8069 -8.94133 5.7594 -102.606 31.7874 7.2852 7.95139e-016 9.54166e-015 -0 3.63773 -0.0275355 1.99255 6.49439e-006 -1.92355e-006 3.0116 -8.03009 -4.95139 -0.697618 178.892 59.7897 -1.56706 180 7.01546e-015 178.918 -173.824 61.1523 173.429 -4.82919e-006 -3.06388e-006 1.14437 -18.9929 68.1758 19.6863 8.13649 25.2327 -3.48773 -175.642 60.8283 0.629246 4.47153e-006 -3.51245e-005 -1.14273 6.97153 -59.7159 6.17862 2.92717e-006 -1.15251e-006 -1.03603 17.4116 65.3213 -17.5242 -8.13649 25.2327 3.48773 
49.3599 53.8051 -6.01926 -1.59465 -21.2506 4.23819 -0.306527 -0.265312 -0.489375 -0.622277 3.47475 -0.945778 -0.611745 5.11968 -0.936576 4.14965 29.3383 -1.92798 2.05689 7.086 0.0730689 92.6149 -0.19744 -3.63925 85.8061 28.6763 7.95765 -3.70031e-006 -7.87616e-006 -9.65574e-007 -3.643 -0.0305542 -1.99272 -2.16825e-005 4.26875e-006 -3.01161 8.03009 -4.95138 0.697598 -72.8017 -8.95143 5.76415 -102.627 31.8428 7.32169 -7.95139e-015 -6.36111e-015 -8.74653e-015 3.63812 -0.0275355 1.99255 6.49439e-006 -1.92355e-006 3.0116 -8.03009 -4.95139 -0.697618 178.911 59.8279 -1.58094 180 7.01546e-015 178.917 -173.806 61.2007 173.411 -4.82919e-006 -3.06388e-006 1.14559 -18.9933 68.1763 19.686 8.13649 25.2327 -3.48773 -175.725 60.8441 0.711116 4.47153e-006 -3.51245e-005 -1.14273 6.99821 -59.73 6.19762 2.92717e-006 -1.15251e-006 -1.03605 17.4111 65.3206 -17.5226 -8.13649 25.2327 3.48773 
49.3606 53.8087 -6.03708 -1.58855 -21.2488 4.24905 -0.305842 -0.256936 -0.488897 -0.619774 3.49148 -0.943966 -0.609262 5.13642 -0.934892 4.17588 29.3536 -1.95403 2.01469 7.18918 0.0572197 92.5596 -0.202834 -3.63548 85.89 28.7283 7.87221 -3.70031e-006 -7.87616e-006 -9.65574e-007 -3.643 -0.0305542 -1.99272 -2.16825e-005 4.26875e-006 -3.01161 8.03009 -4.95138 0.697598 -72.7966 -8.96204 5.76915 -102.649 31.8981 7.35853 4.77083e-015 9.54166e-015 2.38542e-015 3.63853 -0.0275355 1.99255 6.49439e-006 -1.92355e-006 3.0116 -8.03009 -4.95139 -0.697618 178.931 59.8656 -1.59483 180 7.01546e-015 178.917 -173.787 61.2487 173.393 -4.82919e-006 -3.06388e-006 1.14681 -18.9937 68.1767 19.6858 8.13649 25.2327 -3.48773 -175.807 60.8593 0.792827 4.47153e-006 -3.51245e-005 -1.14273 7.02483 -59.7437 6.21656 2.92717e-006 -1.15251e-006 -1.03605 17.4106 65.3199 -17.5209 -8.13649 25.2327 3.48773 
49.3614 53.8063 -6.04338 -1.58246 -21.247 4.25989 -0.305161 -0.248554 -0.488424 -0.617277 3.50823 -0.942161 -0.606786 5.15317 -0.933216 4.20226 29.3684 -1.98014 1.97239 7.29271 0.0413519 92.5043 -0.208223 -3.63171 85.9743 28.7802 7.78659 -3.70031e-006 -7.87616e-006 -9.65574e-007 -3.643 -0.0305542 -1.99272 -2.16825e-005 4.26875e-006 -3.01161 8.03009 -4.95138 0.697598 -72.7914 -8.97277 5.7742 -102.671 31.9534 7.39549 -7.15625e-015 9.54166e-015 -5.56597e-015 3.63894 -0.0275355 1.99255 6.49439e-006 -1.92355e-006 3.0116 -8.03009 -4.95139 -0.697618 178.95 59.9032 -1.60875 180 7.01545e-015 178.916 -173.768 61.2967 173.375 -4.82919e-006 -3.06388e-006 1.14801 -18.9941 68.1772 19.6855 8.13649 25.2327 -3.48773 -175.89 60.8745 0.874556 4.47153e-006 -3.51245e-005 -1.14273 7.05144 -59.7573 6.23549 2.92717e-006 -1.15251e-006 -1.03606 17.41 65.3193 -17.5192 -8.13649 25.2327 3.48773 
49.3626 53.8092 -6.0608 -1.57636 -21.2451 4.27076 -0.304471 -0.240184 -0.48794 -0.61477 3.52496 -0.940341 -0.604299 5.16989 -0.931524 4.22839 29.384 -2.00616 1.93048 7.39554 0.0255001 92.4491 -0.213621 -3.62794 86.0585 28.8321 7.70111 -3.70031e-006 -7.87616e-006 -9.65574e-007 -3.643 -0.0305542 -1.99272 -2.16825e-005 4.26875e-006 -3.01161 8.03009 -4.95138 0.697598 -72.7863 -8.98325 5.77914 -102.693 32.0087 7.43235 -1.59028e-015 0 -2.38542e-015 3.63934 -0.0275355 1.99255 6.49439e-006 -1.92355e-006 3.0116 -8.03009 -4.95139 -0.697618 178.97 59.941 -1.62271 180 7.01545e-015 178.915 -173.749 61.3448 173.356 -4.82919e-006 -3.06388e-006 1.14923 -18.9945 68.1776 19.6852 8.13649 25.2327 -3.48773 -175.973 60.8897 0.956484 4.47153e-006 -3.51245e-005 -1.14273 7.07812 -59.7711 6.25447 2.92717e-006 -1.15251e-006 -1.03606 17.4095 65.3186 -17.5176 -8.13649 25.2327 3.48773 
49.3638 53.8137 -6.07309 -1.57025 -21.243 4.28167 -0.303758 -0.231842 -0.487427 -0.612235 3.54163 -0.938486 -0.601784 5.18656 -0.929794 4.25388 29.4017 -2.03192 1.8895 7.49663 0.0096989 92.394 -0.219041 -3.6242 86.1422 28.8839 7.61607 -3.70031e-006 -7.87616e-006 -9.65574e-007 -3.643 -0.0305542 -1.99272 -2.16825e-005 4.26875e-006 -3.01161 8.03009 -4.95138 0.697598 -72.7811 -8.9931 5.78377 -102.715 32.064 7.4689 7.95139e-015 1.59028e-014 8.74653e-015 3.63973 -0.0275355 1.99255 6.49439e-006 -1.92355e-006 3.0116 -8.03009 -4.95139 -0.697618 178.99 59.9794 -1.63673 180 7.01545e-015 178.915 -173.73 61.3932 173.338 -4.82919e-006 -3.06388e-006 1.15046 -18.9949 68.1781 19.685 8.13649 25.2327 -3.48773 -176.056 60.9055 1.03879 4.47153e-006 -3.51245e-005 -1.14273 7.10492 -59.7853 6.27358 2.92717e-006 -1.15251e-006 -1.03609 17.409 65.3179 -17.5159 -8.13649 25.2327 3.48773 
49.3677 53.8113 -6.07163 -1.56412 -21.2405 4.29267 -0.303007 -0.223546 -0.486868 -0.609653 3.55821 -0.936572 -0.599223 5.20314 -0.928003 4.27832 29.4226 -2.05728 1.84996 7.59492 -0.00601666 92.3393 -0.224498 -3.62051 86.225 28.9357 7.5318 -3.70031e-006 -7.87616e-006 -9.65574e-007 -3.643 -0.0305542 -1.99272 -2.16825e-005 4.26875e-006 -3.01161 8.03009 -4.95138 0.697598 -72.7758 -9.00193 5.78791 -102.736 32.1193 7.50491 1.59028e-015 1.90833e-014 -7.95139e-016 3.64009 -0.0275355 1.99255 6.49439e-006 -1.92355e-006 3.0116 -8.03009 -4.95139 -0.697618 179.01 60.0186 -1.65084 180 7.01545e-015 178.914 -173.711 61.4423 173.32 -4.82919e-006 -3.06388e-006 1.15173 -18.9954 68.1787 19.6848 8.13649 25.2327 -3.48773 -176.14 60.922 1.12167 4.47153e-006 -3.51245e-005 -1.14273 7.13191 -59.8001 6.29287 2.92717e-006 -1.15251e-006 -1.03614 17.4085 65.3171 -17.5143 -8.13649 25.2327 3.48773 
49.3586 53.8333 -6.08289 -1.55798 -21.2373 4.30377 -0.302204 -0.215311 -0.486245 -0.607007 3.57466 -0.934579 -0.596599 5.2196 -0.926127 4.30133 29.4482 -2.08207 1.81237 7.68938 -0.0216115 92.285 -0.230005 -3.61686 86.3067 28.9875 7.44861 -3.70031e-006 -7.87616e-006 -9.65574e-007 -3.643 -0.0305542 -1.99272 -2.16825e-005 4.26875e-006 -3.01161 8.03009 -4.95138 0.697598 -72.7704 -9.00936 5.79138 -102.757 32.1747 7.54015 -2.54444e-014 -3.18055e-015 -2.14687e-014 3.64041 -0.0275354 1.99255 6.49439e-006 -1.92355e-006 3.0116 -8.03009 -4.95139 -0.697618 179.03 60.059 -1.66505 180 7.01545e-015 178.913 -173.692 61.4921 173.301 -4.82919e-006 -3.06388e-006 1.15303 -18.9959 68.1793 19.6847 8.13649 25.2327 -3.48773 -176.225 60.9397 1.20531 4.47153e-006 -3.51245e-005 -1.14273 7.15915 -59.8158 6.3124 2.92717e-006 -1.15251e-006 -1.03622 17.4079 65.3164 -17.5127 -8.13649 25.2327 3.48773 
49.3601 53.8317 -6.10638 -1.5518 -21.2335 4.31502 -0.301336 -0.207156 -0.485541 -0.60428 3.59096 -0.932484 -0.593895 5.23589 -0.924144 4.32252 29.4795 -2.10615 1.77725 7.77894 -0.0370503 92.2311 -0.235575 -3.61329 86.3867 29.0392 7.36682 -3.70031e-006 -7.87616e-006 -9.65574e-007 -3.643 -0.0305542 -1.99272 -2.16825e-005 4.26875e-006 -3.01161 8.03009 -4.95138 0.697598 -72.7649 -9.01502 5.79401 -102.776 32.2301 7.57441 1.59028e-015 1.27222e-014 7.95139e-016 3.64069 -0.0275354 1.99255 6.49439e-006 -1.92355e-006 3.0116 -8.03009 -4.95139 -0.697618 179.05 60.101 -1.67937 180 7.01545e-015 178.912 -173.674 61.5429 173.283 -4.82919e-006 -3.06388e-006 1.15439 -18.9965 68.18 19.6848 8.13649 25.2327 -3.48773 -176.31 60.9588 1.28991 4.47153e-006 -3.51245e-005 -1.14273 7.18671 -59.8326 6.33225 2.92717e-006 -1.15251e-006 -1.03636 17.4073 65.3156 -17.5111 -8.13649 25.2327 3.48773 
49.37 53.8285 -6.11884 -1.54559 -21.2288 4.32644 -0.300387 -0.199097 -0.484738 -0.601452 3.60706 -0.930266 -0.591092 5.252 -0.922031 4.3415 29.5178 -2.12937 1.74511 7.86257 -0.0522976 92.1779 -0.241222 -3.6098 86.4647 29.091 7.28676 -3.70031e-006 -7.87616e-006 -9.65574e-007 -3.643 -0.0305542 -1.99272 -2.16825e-005 4.26875e-006 -3.01161 8.03009 -4.95138 0.697598 -72.7592 -9.01851 5.7956 -102.794 32.2855 7.60745 -2.38542e-015 3.18055e-015 -2.38542e-015 3.64091 -0.0275354 1.99255 6.49439e-006 -1.92355e-006 3.0116 -8.03009 -4.95139 -0.697618 179.071 60.1447 -1.69385 180 7.01544e-015 178.912 -173.655 61.595 173.264 -4.82919e-006 -3.06388e-006 1.1558 -18.9972 68.1807 19.6849 8.13649 25.2327 -3.48773 -176.398 60.9796 1.37566 4.47153e-006 -3.51245e-005 -1.14273 7.21465 -59.8508 6.35247 2.92717e-006 -1.15251e-006 -1.03654 17.4068 65.3147 -17.5095 -8.13649 25.2327 3.48773 
49.3678 53.8339 -6.13148 -1.53934 -21.223 4.33805 -0.299345 -0.191151 -0.48382 -0.598508 3.62293 -0.927903 -0.588173 5.26787 -0.919765 4.35788 29.5643 -2.15157 1.71647 7.93922 -0.0673177 92.1254 -0.24696 -3.60641 86.5403 29.1427 7.20874 -3.70031e-006 -7.87616e-006 -9.65574e-007 -3.643 -0.0305542 -1.99272 -2.16825e-005 4.26875e-006 -3.01161 8.03009 -4.95138 0.697598 -72.7533 -9.01948 5.79597 -102.81 32.3411 7.63907 -7.95139e-015 9.54166e-015 -7.15625e-015 3.64106 -0.0275354 1.99255 6.49439e-006 -1.92355e-006 3.0116 -8.03009 -4.95139 -0.697618 179.093 60.1906 -1.70848 180 7.01544e-015 178.911 -173.637 61.6485 173.245 -4.82919e-006 -3.06388e-006 1.15729 -18.9979 68.1816 19.6852 8.13649 25.2327 -3.48773 -176.486 61.0026 1.46277 4.47153e-006 -3.51245e-005 -1.14273 7.24305 -59.8705 6.37313 2.92717e-006 -1.15251e-006 -1.0368 17.4061 65.3137 -17.5079 -8.13649 25.2327 3.48773 
